<svg xmlns="http://www.w3.org/2000/svg" viewBox="0 0 512 512">
  <defs>
    <linearGradient id="bg" x1="0%" y1="0%" x2="100%" y2="100%">
      <stop offset="0%" style="stop-color:#31c27c"/>
      <stop offset="100%" style="stop-color:#1aad6e"/>
    </linearGradient>
  </defs>
  <!-- Rounded square background -->
  <rect width="512" height="512" rx="112" fill="url(#bg)"/>
  <!-- Stylized music note — note head -->
  <ellipse cx="196" cy="372" rx="58" ry="44" fill="white" transform="rotate(-20, 196, 372)"/>
  <!-- Stem -->
  <rect x="235" y="124" width="22" height="228" rx="11" fill="white"/>
  <!-- Note flag -->
  <path d="M257 124 Q360 148 370 224 Q374 242 366 252 Q352 244 340 224 Q320 186 288 158 L257 134 Z" fill="white"/>
  <!-- Sound wave arcs — right side -->
  <path d="M390 248 Q410 256 410 280 Q410 304 390 312" fill="none" stroke="white" stroke-width="16" stroke-linecap="round" opacity="0.7"/>
  <path d="M416 220 Q448 236 448 280 Q448 324 416 340" fill="none" stroke="white" stroke-width="14" stroke-linecap="round" opacity="0.45"/>
  <path d="M440 196 Q482 218 482 280 Q482 342 440 364" fill="none" stroke="white" stroke-width="12" stroke-linecap="round" opacity="0.25"/>
</svg>
